<?xml version="1.0" standalone="no"?><!DOCTYPE svg PUBLIC "-//W3C//DTD SVG 1.1//EN" "http://www.w3.org/Graphics/SVG/1.1/DTD/svg11.dtd"><svg t="1622899532119" class="icon" viewBox="0 0 1024 1024" version="1.1" xmlns="http://www.w3.org/2000/svg" p-id="2514" xmlns:xlink="http://www.w3.org/1999/xlink" width="200" height="200"><defs><style type="text/css"></style></defs><path d="M634.50624 587.33056a31.6416 31.6416 0 0 1-44.66176 0l-48.8192-48.67584v325.85728A31.5392 31.5392 0 0 1 509.44 896a31.53408 31.53408 0 0 1-31.58016-31.488v-325.8624l-48.80384 48.68096a31.6416 31.6416 0 0 1-44.66176 0 31.4368 31.4368 0 0 1 0-44.544L487.11168 440.32a31.63648 31.63648 0 0 1 44.65664 0l102.73792 102.44608a31.4368 31.4368 0 0 1 0 44.56448z m145.4848-243.9424a274.29376 274.29376 0 0 0-537.8816-0.28672 173.80864 173.80864 0 0 0 14.12608 347.0848h171.08992v-45.82912a82.70848 82.70848 0 0 1-20.61312 2.59072 81.88928 81.88928 0 0 1-58.06592-139.776l102.73792-102.46144a82.26816 82.26816 0 0 1 116.13184 0l102.72768 102.43072a81.88416 81.88416 0 0 1-58.06592 139.776 82.7392 82.7392 0 0 1-20.61824-2.59072v45.8496h171.0848a173.80864 173.80864 0 0 0 17.34656-346.78784z" fill="#5288F5" p-id="2515"></path></svg>