<?xml version="1.0" standalone="no"?><!DOCTYPE svg PUBLIC "-//W3C//DTD SVG 1.1//EN" "http://www.w3.org/Graphics/SVG/1.1/DTD/svg11.dtd"><svg t="1622476676705" class="icon" viewBox="0 0 1024 1024" version="1.1" xmlns="http://www.w3.org/2000/svg" p-id="1264" xmlns:xlink="http://www.w3.org/1999/xlink" width="200" height="200"><defs><style type="text/css"></style></defs><path d="M1024 803.584H0V190.464h947.2a76.8 76.8 0 0 1 76.8 76.8v537.6zM640 190.464a128 128 0 0 0-128-128H0v128h640" fill="#FFC112" p-id="1265"></path><path d="M128 248.832h768v383.744H128z" fill="#FFFFFF" p-id="1266"></path><path d="M1024 884.736V387.584a64 64 0 0 0-63.744-64H64a64 64 0 0 0-64 64v496.896a78.848 78.848 0 0 0 78.848 78.848h866.304A78.336 78.336 0 0 0 1024 884.736z m0 0" fill="#FFD741" p-id="1267"></path></svg>