<?xml version="1.0" standalone="no"?><!DOCTYPE svg PUBLIC "-//W3C//DTD SVG 1.1//EN" "http://www.w3.org/Graphics/SVG/1.1/DTD/svg11.dtd"><svg t="1622477656427" class="icon" viewBox="0 0 1024 1024" version="1.1" xmlns="http://www.w3.org/2000/svg" p-id="5357" xmlns:xlink="http://www.w3.org/1999/xlink" width="200" height="200"><defs><style type="text/css"></style></defs><path d="M864.074 1024H220.17c-63.61 0-115.176-51.566-115.176-115.176V115.176C104.994 51.566 156.56 0 220.17 0h643.904c63.61 0 115.176 51.566 115.176 115.176v793.646c0.002 63.612-51.566 115.178-115.176 115.178z" fill="#DDEAFB" p-id="5358"></path><path d="M291.408 1024H220.16c-63.604 0-115.174-51.572-115.174-115.174V115.174C104.986 51.572 156.558 0 220.16 0h71.248c-63.604 0-115.174 51.57-115.174 115.174v793.652c0 63.602 51.57 115.174 115.174 115.174z" fill="#BED8FB" p-id="5359"></path><path d="M190.002 211.908H85.858c-22.704 0-41.11-18.406-41.11-41.11s18.406-41.11 41.11-41.11h104.144c22.704 0 41.11 18.406 41.11 41.11s-18.406 41.11-41.11 41.11z" fill="#F1D333" p-id="5360"></path><path d="M229.238 183.084a40.91 40.91 0 0 1-10.158 16.792 40.984 40.984 0 0 1-29.072 12.032H85.858c-22.706 0-41.104-18.398-41.104-41.104a40.98 40.98 0 0 1 12.032-29.072 40.92 40.92 0 0 1 29.072-12.054h2.534a41.056 41.056 0 0 0-1.874 12.3c0 22.684 18.4 41.104 41.104 41.104h101.616z" fill="#EAB14D" p-id="5361"></path><path d="M190.002 894.322H85.858c-22.704 0-41.11-18.406-41.11-41.11s18.406-41.11 41.11-41.11h104.144c22.704 0 41.11 18.406 41.11 41.11s-18.406 41.11-41.11 41.11z" fill="#F1D333" p-id="5362"></path><path d="M229.238 865.498a40.91 40.91 0 0 1-10.158 16.792 40.984 40.984 0 0 1-29.072 12.032H85.858c-22.706 0-41.104-18.398-41.104-41.104a40.98 40.98 0 0 1 12.032-29.072 40.92 40.92 0 0 1 29.072-12.054h2.534a41.056 41.056 0 0 0-1.874 12.3c0 22.684 18.4 41.104 41.104 41.104h101.616z" fill="#EAB14D" p-id="5363"></path><path d="M190.002 723.718H85.858c-22.704 0-41.11-18.406-41.11-41.11s18.406-41.11 41.11-41.11h104.144c22.704 0 41.11 18.406 41.11 41.11s-18.406 41.11-41.11 41.11z" fill="#F1D333" p-id="5364"></path><path d="M229.238 694.894a40.91 40.91 0 0 1-10.158 16.792 40.984 40.984 0 0 1-29.072 12.032H85.858c-22.706 0-41.104-18.398-41.104-41.104a40.98 40.98 0 0 1 12.032-29.072 40.92 40.92 0 0 1 29.072-12.054h2.534a41.056 41.056 0 0 0-1.874 12.3c0 22.684 18.4 41.104 41.104 41.104h101.616z" fill="#EAB14D" p-id="5365"></path><path d="M190.002 553.114H85.858c-22.704 0-41.11-18.406-41.11-41.11s18.406-41.11 41.11-41.11h104.144c22.704 0 41.11 18.406 41.11 41.11 0 22.706-18.406 41.11-41.11 41.11z" fill="#F1D333" p-id="5366"></path><path d="M229.238 524.29a40.91 40.91 0 0 1-10.158 16.792 40.984 40.984 0 0 1-29.072 12.032H85.858c-22.706 0-41.104-18.398-41.104-41.104a40.98 40.98 0 0 1 12.032-29.072 40.92 40.92 0 0 1 29.072-12.054h2.534a41.056 41.056 0 0 0-1.874 12.3c0 22.684 18.4 41.104 41.104 41.104h101.616z" fill="#EAB14D" p-id="5367"></path><path d="M190.002 382.51H85.858c-22.704 0-41.11-18.406-41.11-41.11s18.406-41.11 41.11-41.11h104.144c22.704 0 41.11 18.406 41.11 41.11 0 22.706-18.406 41.11-41.11 41.11z" fill="#F1D333" p-id="5368"></path><path d="M229.238 353.686a40.91 40.91 0 0 1-10.158 16.792 40.984 40.984 0 0 1-29.072 12.032H85.858c-22.706 0-41.104-18.398-41.104-41.104a40.98 40.98 0 0 1 12.032-29.072 40.92 40.92 0 0 1 29.072-12.054h2.534a41.056 41.056 0 0 0-1.874 12.3c0 22.684 18.4 41.104 41.104 41.104h101.616z" fill="#EAB14D" p-id="5369"></path><path d="M861.536 176.654H310.67a15.452 15.452 0 1 1 0-30.904h550.866a15.454 15.454 0 0 1 0 30.904zM861.536 352.052H310.67a15.452 15.452 0 1 1 0-30.904h550.866a15.452 15.452 0 1 1 0 30.904zM861.536 527.452H310.67a15.452 15.452 0 1 1 0-30.904h550.866a15.452 15.452 0 1 1 0 30.904zM861.536 702.852H310.67a15.452 15.452 0 1 1 0-30.904h550.866a15.452 15.452 0 1 1 0 30.904zM861.536 878.252H310.67a15.452 15.452 0 1 1 0-30.904h550.866a15.452 15.452 0 1 1 0 30.904z" fill="#80B4FB" p-id="5370"></path></svg>