<?xml version="1.0" standalone="no"?><!DOCTYPE svg PUBLIC "-//W3C//DTD SVG 1.1//EN" "http://www.w3.org/Graphics/SVG/1.1/DTD/svg11.dtd"><svg t="1622543880606" class="icon" viewBox="0 0 1024 1024" version="1.1" xmlns="http://www.w3.org/2000/svg" p-id="3318" data-spm-anchor-id="a313x.7781069.0.i2" xmlns:xlink="http://www.w3.org/1999/xlink" width="200" height="200"><defs><style type="text/css"></style></defs><path d="M685.485 167.462H336.91c-20.916 0-34.857-13.894-34.857-34.738 0-20.843 13.942-34.738 34.857-34.738h348.576c20.915 0 34.857 13.895 34.857 34.738 0 20.844-13.943 34.738-34.858 34.738z" p-id="3319" fill="#1296db"></path><path d="M826.392 98.328h-57.719v55.738c0 38.213-43.37 69.477-81.714 69.477H338.384c-38.344 0-82.715-31.264-82.715-69.477V98.328h-56.718c-38.344 0-69.715 31.264-69.715 69.477v690.036c0 38.213 31.371 69.477 69.715 69.477h627.441c38.344 0 69.715-31.264 69.715-69.477V167.805c0-38.213-31.371-69.477-69.715-69.477zM687.288 610.679H547.455v139.347c0 20.915-13.895 34.857-34.738 34.857-20.844 0-34.738-13.943-34.738-34.857V610.679H338.712c-20.916 0-34.857-13.894-34.857-34.738 0-20.843 13.942-34.738 34.857-34.738h139.266V401.45c0-20.916 13.894-34.857 34.738-34.857 20.843 0 34.738 13.942 34.738 34.857v139.752h139.833c20.915 0 34.857 13.895 34.857 34.738 0.001 20.845-13.942 34.739-34.856 34.739z" p-id="3320" fill="#1296db"></path></svg>